<?xml version="1.0" standalone='no'?><!-- IBoard SVG File --><svg xmlns="http://www.w3.org/2000/svg" xmlns:xlink="http://www.w3.org/1999/xlink" viewBox="216.85 173.96 1012.57 72.40" height="65.40" width="1019.57" version="1.1"><!-- SVG File --><text xml:space="preserve" x="306.267303" y="208.753815" textLength="23.110001" lengthAdjust="spacingAndGlyphs"><tspan font-family="Arial" font-weight="normal" baseline-shift="0" font-size="13" fill="#000000">C</tspan><tspan font-family="Arial" font-weight="normal" baseline-shift="0" font-size="13" fill="#000000">H</tspan><tspan font-family="Arial" font-weight="normal" baseline-shift="-2" font-size="8" fill="#000000">3</tspan></text><polygon points="266.399750,230.104401 280.799530,205.163300 281.480347,205.163300 281.820770,205.752899 267.080597,231.283600 266.740173,230.694000 " style="fill:rgb(0,0,0);fill-opacity:1.000000"/><polygon points="276.884796,205.458099 264.187103,183.465042 264.697723,183.170242 265.208344,182.875443 277.906036,204.868500 277.395416,205.163300 " style="fill:rgb(0,0,0);fill-opacity:1.000000"/><polygon points="280.799530,205.163300 266.399750,180.222198 266.740173,179.632599 267.080597,179.042999 281.820770,204.573700 281.480347,205.163300 " style="fill:rgb(0,0,0);fill-opacity:1.000000"/><polygon points="266.399750,180.222198 237.600281,180.222198 237.259857,179.632599 236.919434,179.042999 267.080597,179.042999 266.740173,179.632599 " style="fill:rgb(0,0,0);fill-opacity:1.000000"/><polygon points="239.812943,183.465042 227.115234,205.458099 226.604614,205.163300 226.093994,204.868500 238.791702,182.875443 239.302322,183.170242 " style="fill:rgb(0,0,0);fill-opacity:1.000000"/><polygon points="237.600281,180.222198 223.200516,205.163300 222.519699,205.163300 221.838882,205.163300 236.919434,179.042999 237.259857,179.632599 " style="fill:rgb(0,0,0);fill-opacity:1.000000"/><polygon points="223.200516,205.163300 237.600281,230.104401 237.259857,230.694000 236.919434,231.283600 221.838882,205.163300 222.519699,205.163300 " style="fill:rgb(0,0,0);fill-opacity:1.000000"/><polygon points="239.302322,226.566757 264.697723,226.566757 264.697723,227.156357 264.697723,227.745956 239.302322,227.745956 239.302322,227.156357 " style="fill:rgb(0,0,0);fill-opacity:1.000000"/><polygon points="237.600281,230.104401 266.399750,230.104401 266.740173,230.694000 267.080597,231.283600 236.919434,231.283600 237.259857,230.694000 " style="fill:rgb(0,0,0);fill-opacity:1.000000"/><polygon points="281.820770,204.573700 305.088104,204.573700 305.088104,205.163300 305.088104,205.752899 281.820770,205.752899 281.480347,205.163300 " style="fill:rgb(0,0,0);fill-opacity:1.000000"/><text xml:space="preserve" x="484.737549" y="210.428207" textLength="39.000000" lengthAdjust="spacingAndGlyphs"><tspan font-family="Arial" font-weight="normal" baseline-shift="0" font-size="13" fill="#000000">C</tspan><tspan font-family="Arial" font-weight="normal" baseline-shift="0" font-size="13" fill="#000000">O</tspan><tspan font-family="Arial" font-weight="normal" baseline-shift="0" font-size="13" fill="#000000">O</tspan><tspan font-family="Arial" font-weight="normal" baseline-shift="0" font-size="13" fill="#000000">H</tspan></text><polygon points="444.869965,230.104355 459.269745,205.163254 459.950562,205.163254 460.290985,205.752853 445.550812,231.283554 445.210388,230.693954 " style="fill:rgb(0,0,0);fill-opacity:1.000000"/><polygon points="455.355011,205.458054 442.657318,183.464981 443.167938,183.170181 443.678558,182.875381 456.376251,204.868454 455.865631,205.163254 " style="fill:rgb(0,0,0);fill-opacity:1.000000"/><polygon points="459.269745,205.163254 444.869965,180.222137 445.210388,179.632538 445.550812,179.042938 460.290985,204.573654 459.950562,205.163254 " style="fill:rgb(0,0,0);fill-opacity:1.000000"/><polygon points="444.869965,180.222137 416.070526,180.222137 415.730103,179.632538 415.389679,179.042938 445.550812,179.042938 445.210388,179.632538 " style="fill:rgb(0,0,0);fill-opacity:1.000000"/><polygon points="418.283173,183.464981 405.585480,205.458054 405.074860,205.163254 404.564240,204.868454 417.261932,182.875381 417.772552,183.170181 " style="fill:rgb(0,0,0);fill-opacity:1.000000"/><polygon points="416.070526,180.222137 401.670776,205.163254 400.989960,205.163254 400.309143,205.163254 415.389679,179.042938 415.730103,179.632538 " style="fill:rgb(0,0,0);fill-opacity:1.000000"/><polygon points="401.670776,205.163254 416.070526,230.104355 415.730103,230.693954 415.389679,231.283554 400.309143,205.163254 400.989960,205.163254 " style="fill:rgb(0,0,0);fill-opacity:1.000000"/><polygon points="417.772552,226.566711 443.167938,226.566711 443.167938,227.156311 443.167938,227.745911 417.772552,227.745911 417.772552,227.156311 " style="fill:rgb(0,0,0);fill-opacity:1.000000"/><polygon points="416.070526,230.104355 444.869965,230.104355 445.210388,230.693954 445.550812,231.283554 415.389679,231.283554 415.730103,230.693954 " style="fill:rgb(0,0,0);fill-opacity:1.000000"/><polygon points="460.290985,204.573654 483.558350,204.573654 483.558350,205.163254 483.558350,205.752853 460.290985,205.752853 459.950562,205.163254 " style="fill:rgb(0,0,0);fill-opacity:1.000000"/><text xml:space="preserve" x="684.403503" y="210.428253" textLength="19.500000" lengthAdjust="spacingAndGlyphs"><tspan font-family="Arial" font-weight="normal" baseline-shift="0" font-size="13" fill="#FF0D0D">O</tspan><tspan font-family="Arial" font-weight="normal" baseline-shift="0" font-size="13" fill="#FF0D0D">H</tspan></text><polygon points="660.320190,205.752899 645.580078,231.283600 645.239685,230.694000 644.899292,230.104401 659.298950,205.163315 659.979797,205.163300 " style="fill:rgb(0,0,0);fill-opacity:1.000000"/><polygon points="645.580078,231.283600 615.418945,231.283600 615.759338,230.694000 616.099731,230.104401 644.899292,230.104401 645.239685,230.694000 " style="fill:rgb(0,0,0);fill-opacity:1.000000"/><polygon points="643.197205,227.745956 617.801819,227.745956 617.801819,227.156357 617.801819,226.566757 643.197205,226.566757 643.197205,227.156357 " style="fill:rgb(0,0,0);fill-opacity:1.000000"/><polygon points="615.418945,231.283600 600.338379,205.163284 601.019226,205.163300 601.700073,205.163315 616.099731,230.104401 615.759338,230.694000 " style="fill:rgb(0,0,0);fill-opacity:1.000000"/><polygon points="600.338379,205.163300 615.418945,179.042984 615.759338,179.632584 616.099731,180.222183 601.700073,205.163300 601.019226,205.163300 " style="fill:rgb(0,0,0);fill-opacity:1.000000"/><polygon points="604.593506,204.868500 617.291138,182.875397 617.801758,183.170197 618.312378,183.464996 605.614746,205.458099 605.104126,205.163300 " style="fill:rgb(0,0,0);fill-opacity:1.000000"/><polygon points="615.418945,179.042984 645.580078,179.042984 645.239685,179.632584 644.899292,180.222183 616.099731,180.222183 615.759338,179.632584 " style="fill:rgb(0,0,0);fill-opacity:1.000000"/><polygon points="645.580078,179.042984 660.320190,204.573700 659.979797,205.163300 659.298950,205.163300 644.899292,180.222183 645.239685,179.632584 " style="fill:rgb(0,0,0);fill-opacity:1.000000"/><polygon points="643.707886,182.875397 656.405518,204.868500 655.894897,205.163300 655.384277,205.458099 642.686646,183.464996 643.197266,183.170197 " style="fill:rgb(0,0,0);fill-opacity:1.000000"/><polygon points="660.320190,204.573700 683.224304,204.573700 683.224304,205.163300 683.224304,205.752899 660.320190,205.752899 659.979797,205.163300 " style="fill:rgb(0,0,0);fill-opacity:1.000000"/><text xml:space="preserve" x="862.902283" y="210.428223" textLength="10.113334" lengthAdjust="spacingAndGlyphs"><tspan font-family="Arial" font-weight="normal" baseline-shift="0" font-size="13" fill="#FF0D0D">O</tspan></text><polygon points="794.598572,230.104370 823.398071,230.104370 823.738464,230.693970 824.078857,231.283569 793.917786,231.283569 794.258179,230.693970 " style="fill:rgb(0,0,0);fill-opacity:1.000000"/><polygon points="823.398071,230.104370 837.797791,205.163269 838.478638,205.163269 839.159485,205.163269 824.078857,231.283569 823.738464,230.693970 " style="fill:rgb(0,0,0);fill-opacity:1.000000"/><polygon points="837.797791,205.163254 823.398071,180.222153 823.738464,179.632553 824.078857,179.042953 839.159485,205.163284 838.478638,205.163269 " style="fill:rgb(0,0,0);fill-opacity:1.000000"/><polygon points="823.398071,180.222153 794.598572,180.222183 794.258179,179.632584 793.917786,179.042984 824.078857,179.042953 823.738464,179.632553 " style="fill:rgb(0,0,0);fill-opacity:1.000000"/><polygon points="794.598572,180.222183 780.198853,205.163269 779.518005,205.163269 778.837158,205.163269 793.917786,179.042984 794.258179,179.632584 " style="fill:rgb(0,0,0);fill-opacity:1.000000"/><polygon points="780.198853,205.163284 794.598572,230.104370 794.258179,230.693970 793.917786,231.283569 778.837158,205.163254 779.518005,205.163269 " style="fill:rgb(0,0,0);fill-opacity:1.000000"/><polygon points="837.457397,202.804855 861.723083,202.804855 861.723083,203.394455 861.723083,203.984055 837.457397,203.984055 837.457397,203.394455 " style="fill:rgb(0,0,0);fill-opacity:1.000000"/><polygon points="837.457397,206.342484 861.723083,206.342484 861.723083,206.932083 861.723083,207.521683 837.457397,207.521683 837.457397,206.932083 " style="fill:rgb(0,0,0);fill-opacity:1.000000"/><text xml:space="preserve" x="1014.136475" y="229.377808" textLength="19.500000" lengthAdjust="spacingAndGlyphs"><tspan font-family="Arial" font-weight="normal" baseline-shift="0" font-size="13" fill="#FF0D0D">O</tspan><tspan font-family="Arial" font-weight="normal" baseline-shift="0" font-size="13" fill="#FF0D0D">H</tspan></text><text xml:space="preserve" x="1014.499756" y="191.478638" textLength="18.773333" lengthAdjust="spacingAndGlyphs"><tspan font-family="Arial" font-weight="normal" baseline-shift="0" font-size="13" fill="#000000">C</tspan><tspan font-family="Arial" font-weight="normal" baseline-shift="0" font-size="13" fill="#000000">N</tspan></text><polygon points="952.729736,230.104370 981.529419,230.104370 981.869812,230.693970 982.210205,231.283569 952.048950,231.283569 952.389343,230.693970 " style="fill:rgb(0,0,0);fill-opacity:1.000000"/><polygon points="981.529419,230.104370 995.929016,205.163269 996.609863,205.163269 996.769165,206.066589 982.210205,231.283569 981.869812,230.693970 " style="fill:rgb(0,0,0);fill-opacity:1.000000"/><polygon points="995.929016,205.163254 981.529419,180.222198 981.869812,179.632599 982.210205,179.042999 996.769165,204.259949 996.609863,205.163269 " style="fill:rgb(0,0,0);fill-opacity:1.000000"/><polygon points="981.529419,180.222198 952.729736,180.222183 952.389343,179.632584 952.048950,179.042984 982.210205,179.042999 981.869812,179.632599 " style="fill:rgb(0,0,0);fill-opacity:1.000000"/><polygon points="952.729736,180.222183 938.330139,205.163269 937.649292,205.163269 936.968445,205.163269 952.048950,179.042984 952.389343,179.632584 " style="fill:rgb(0,0,0);fill-opacity:1.000000"/><polygon points="938.330139,205.163284 952.729736,230.104370 952.389343,230.693970 952.048950,231.283569 936.968445,205.163254 937.649292,205.163269 " style="fill:rgb(0,0,0);fill-opacity:1.000000"/><polygon points="997.527100,205.163269 1013.336243,218.428711 1012.957275,218.880371 1012.578308,219.332031 996.769165,206.066589 996.609863,205.163269 " style="fill:rgb(0,0,0);fill-opacity:1.000000"/><polygon points="996.769165,204.259949 1012.941589,190.689682 1013.320557,191.141342 1013.699524,191.593002 997.527100,205.163269 996.609863,205.163269 " style="fill:rgb(0,0,0);fill-opacity:1.000000"/><text xml:space="preserve" x="1187.052124" y="229.377792" textLength="19.500000" lengthAdjust="spacingAndGlyphs"><tspan font-family="Arial" font-weight="normal" baseline-shift="0" font-size="13" fill="#FF0D0D">O</tspan><tspan font-family="Arial" font-weight="normal" baseline-shift="0" font-size="13" fill="#FF0D0D">H</tspan></text><text xml:space="preserve" x="1187.415405" y="191.478653" textLength="39.000000" lengthAdjust="spacingAndGlyphs"><tspan font-family="Arial" font-weight="normal" baseline-shift="0" font-size="13" fill="#000000">C</tspan><tspan font-family="Arial" font-weight="normal" baseline-shift="0" font-size="13" fill="#000000">O</tspan><tspan font-family="Arial" font-weight="normal" baseline-shift="0" font-size="13" fill="#000000">O</tspan><tspan font-family="Arial" font-weight="normal" baseline-shift="0" font-size="13" fill="#000000">H</tspan></text><polygon points="1125.645508,230.104385 1154.444824,230.104370 1154.785278,230.693970 1155.125732,231.283569 1124.964600,231.283585 1125.305054,230.693985 " style="fill:rgb(0,0,0);fill-opacity:1.000000"/><polygon points="1154.444824,230.104370 1168.844727,205.163269 1169.525513,205.163269 1169.684814,206.066605 1155.125732,231.283569 1154.785278,230.693970 " style="fill:rgb(0,0,0);fill-opacity:1.000000"/><polygon points="1168.844727,205.163300 1154.444824,180.222153 1154.785278,179.632553 1155.125732,179.042953 1169.684814,204.259933 1169.525513,205.163269 " style="fill:rgb(0,0,0);fill-opacity:1.000000"/><polygon points="1154.444824,180.222153 1125.645508,180.222153 1125.305054,179.632553 1124.964600,179.042953 1155.125732,179.042953 1154.785278,179.632553 " style="fill:rgb(0,0,0);fill-opacity:1.000000"/><polygon points="1125.645508,180.222153 1111.245605,205.163269 1110.564819,205.163269 1109.884033,205.163269 1124.964600,179.042953 1125.305054,179.632553 " style="fill:rgb(0,0,0);fill-opacity:1.000000"/><polygon points="1111.245605,205.163239 1125.645508,230.104385 1125.305054,230.693985 1124.964600,231.283585 1109.884033,205.163300 1110.564819,205.163269 " style="fill:rgb(0,0,0);fill-opacity:1.000000"/><polygon points="1170.442749,205.163269 1186.251953,218.428696 1185.872925,218.880356 1185.493896,219.332016 1169.684814,206.066620 1169.525513,205.163269 " style="fill:rgb(0,0,0);fill-opacity:1.000000"/><polygon points="1169.684814,204.259918 1185.857178,190.689697 1186.236206,191.141357 1186.615234,191.593018 1170.442749,205.163300 1169.525513,205.163269 " style="fill:rgb(0,0,0);fill-opacity:1.000000"/></svg>